<?xml version="1.0" encoding="UTF-8"?>
<svg id="Calque_1" data-name="Calque 1" xmlns="http://www.w3.org/2000/svg" version="1.1" viewBox="0 0 52.5 63.9">
  <defs>
    <style>
      .cls-1 {
        fill: #fff;
        opacity: .2;
      }

      .cls-1, .cls-2 {
        stroke-width: 0px;
      }

      .cls-2 {
        fill: #f1f1f1;
      }
    </style>
  </defs>
  <g>
    <path class="cls-2" d="M35.5,16.1h16l-3.3,10.2s-1-7.4-12.7-10.2Z"/>
    <path class="cls-2" d="M35.4,46.7h13.9l-2.9-8.9s-.9,6.4-11,8.9Z"/>
    <path class="cls-2" d="M22.1,46.7c4.4-4.1,4.4-9.9,4.4-15.7,0-13.5-3.2-13.7-4.4-14.9h12.5c-4.5,5-5,26.2,0,30.6h-12.5ZM33,31.2c5.7-.5,6.1-.9,9.2-4v8.4c-2.8-3.3-3.5-3.8-9.2-4.3h0Z"/>
  </g>
  <path class="cls-1" d="M29.7,35.6c-.4-6.4.9-17-1.9-17.8-.3,0-.5.2-.4.5.8,1.2.2,3.4.1,4.8-.6,12.8-.6,14.3.7,15,.3.2.6.1.9-.1.7-.6.6-1.4.5-2.3Z"/>
  <path class="cls-2" d="M20.1,45.7c-.2.3-.6.7-.7,1.1h15.2s0,0,0,0l-.2-.2s0,0,0,0c-5.6-4.6-15-21.7-15-28.9s.1-.9.2-1.4h-7.5c0,.5.3,1.4.5,1.9,6.9,14,11.5,22.4,7.7,27.6Z"/>
  <path class="cls-1" d="M30.7,44.4c-1-2.2-5.6-3.4-11.1-19.8-.8-2.4-1.5-4.8-2.6-7.1-1.9-3.8,1,15,9.7,25.6.8,1,1.7,2.2,2.9,2.7.9.4,1.4-.8,1.1-1.5Z"/>
  <path class="cls-1" d="M24.2,43.8c-.2-.7-1.3-.6-1.3.2-.1,1.3,1.5.7,1.3-.2Z"/>
  <path class="cls-2" d="M17.8,35.8h0c-4.2-.5-5.7-.8-7.3-2.3,1.1-5.1,2.9-9.7,2.7-11.3-1-1.9-2.1-4.4-2.1-3.5,0,7.2-6,23.1-9.8,27.7-.1.2-.1.1-.3.4,12.1,0,10.7.5,9.9-1.1-.8-1.7-1.2-3.7-1.2-5.8,0-.8.4-1.6,1-2.1,1.6-1.3,2.9-1.6,7-2Z"/>
  <path class="cls-1" d="M3.2,45.1c7.4-13.2,7.3-20.1,8.6-23.8.1-.3.6-.2.6,0,.3,3.4-3.1,14.2-7.4,24.5-.5,1.2-2.5.3-1.8-.8Z"/>
  <path class="cls-1" d="M9.6,35.5c.2-1,1.6-.3,1,.4-.3.4-1,.3-1-.4Z"/>
</svg>